<?xml version="1.0" encoding="utf-8"?>
<!-- Generator: Adobe Illustrator 22.0.1, SVG Export Plug-In . SVG Version: 6.00 Build 0)  -->
<svg version="1.1" id="Layer_1" xmlns="http://www.w3.org/2000/svg" xmlns:xlink="http://www.w3.org/1999/xlink" x="0px" y="0px"
	 viewBox="0 0 500 340" style="enable-background:new 0 0 500 340;" xml:space="preserve">
<style type="text/css">
	.st0{fill:none;stroke:#FFFFFF;stroke-width:5;stroke-miterlimit:10;}
	.st1{fill:#FFFFFF;}
</style>
<g>
	<path class="st0" d="M367.5,188H470v146H30V188h102.5l75.5-35l-2.6-0.7c-4.6,0-9.2-8.5-9.2-8.5s8.5-7.9,2.6-6.6
		c-11.2,2-14.5-13.2-14.5-13.2s11.2-2,10.5-10.5c-11.2,0-7.9-4.6-7.9-4.6s5.9-3.3,3.3-3.9c-2.6-0.7-8.5-9.2-8.5-9.2s8.5,3.3,3.9,0
		c-4.6-3.3-4.6-11.2-3.9-8.5c0.7,2.6,17.1,11.8,11.2,4.6c-5.9-7.2-1.3-11.8-2.6-17.1s2-11.2,2-11.2s-6.6-0.7,5.9-13.8
		c11.2-22.4,26.3-33.5,26.3-33.5S231,9.6,254,6.3s36.8,18.4,36.8,18.4s1.3,8.5,7.9,10.5c11.2,0.7,8.5,7.9,12.5,7.9s6.6-2,6.6-2
		s-5.9,5.9-5.9,12.5c11.8,0,11.2,12.5,9.2,11.2c-2-1.3-4.6,0.7-6.6,2.6c-2,2,1.3,7.9,5.3,11.2c3.9,3.3,9.2,13.2,9.2,20.4
		s-7.9,11.2-9.9,10.5c-2-0.7-4.6,2.6-9.9,9.9s-13.2,3.9-11.2,6.6c2,2.6-3.3,16.4-4.6,17.8s-1.3,8.5-1.3,8.5L367.5,188z"/>
	<g>
		<g>
			<path class="st1" d="M91.6,255.6c-1.6,1.6-4,3-7.1,4.3c-3.1,1.3-7,1.9-11.8,1.9c-6.7,0-12.2-2.3-16.4-6.8
				c-4.2-4.5-6.3-10.4-6.3-17.6v-1.7c0-7.5,2.1-13.5,6.2-18.2c4.2-4.7,9.6-7,16.3-7c3.9,0,7.5,0.6,10.7,1.9c3.2,1.2,5.9,2.9,8.1,5
				v10h-7.4l-1.4-6.7c-0.9-0.8-2.1-1.4-3.6-1.9c-1.5-0.5-3.2-0.7-5.2-0.7c-4.4,0-7.7,1.6-10.2,4.8c-2.4,3.2-3.6,7.4-3.6,12.6v1.8
				c0,5.1,1.2,9.1,3.6,12.1c2.4,3,5.8,4.5,10.3,4.5c2,0,3.6-0.2,4.9-0.5c1.2-0.3,2.2-0.7,2.9-1.2v-8.5l-7.1-0.5v-7h17.1V255.6z"/>
			<path class="st1" d="M120.4,261.2c-0.3-0.6-0.5-1.2-0.7-1.9c-0.2-0.7-0.4-1.3-0.5-2c-1.2,1.4-2.6,2.5-4.3,3.3
				c-1.7,0.8-3.6,1.3-5.8,1.3c-3.6,0-6.5-1-8.6-3c-2.1-2-3.2-4.7-3.2-8.1c0-3.5,1.4-6.1,4.2-8c2.8-1.9,6.9-2.8,12.3-2.8h5.1v-3.6
				c0-1.8-0.5-3.2-1.5-4.1c-1-1-2.5-1.5-4.6-1.5c-1.1,0-2.2,0.1-3,0.4c-0.9,0.3-1.6,0.6-2.2,0.9l-0.7,4h-7.5l0-8.2
				c1.8-1.2,3.9-2.3,6.3-3.1c2.4-0.8,4.9-1.3,7.7-1.3c4.6,0,8.3,1.1,11.2,3.4c2.9,2.2,4.3,5.4,4.3,9.6v15.3c0,0.6,0,1.1,0,1.6
				c0,0.5,0.1,1,0.1,1.4l3,0.4v6H120.4z M111.8,254.5c1.5,0,2.9-0.3,4.1-1c1.2-0.7,2.2-1.5,2.9-2.4v-5.6h-5.1
				c-2.1,0-3.7,0.5-4.8,1.5s-1.6,2.2-1.6,3.6c0,1.3,0.4,2.2,1.2,2.9C109.2,254.2,110.3,254.5,111.8,254.5z"/>
			<path class="st1" d="M136.1,255.2l4.8-1v-23l-5.3-1v-6h14.6l0.4,5.4c0.9-1.9,2-3.4,3.4-4.5c1.4-1.1,3-1.6,4.8-1.6
				c0.5,0,1.1,0,1.7,0.1c0.6,0.1,1.1,0.2,1.5,0.3l-1.1,9.1l-4.1-0.1c-1.5,0-2.7,0.3-3.6,0.9c-1,0.6-1.7,1.4-2.2,2.4v18l4.8,1v6
				h-19.6V255.2z"/>
			<path class="st1" d="M203.8,230.2l-3.5,0.5l-13.6,36c-1.1,2.7-2.5,4.9-4.3,6.7c-1.8,1.8-4.5,2.7-8.1,2.7c-0.8,0-1.6-0.1-2.4-0.2
				c-0.7-0.1-1.6-0.3-2.6-0.6l1.2-7.3c0.3,0,0.7,0.1,1,0.1c0.3,0,0.6,0.1,0.9,0.1c1.7,0,2.9-0.4,3.8-1.2c0.9-0.8,1.6-1.8,2.1-3
				l1.1-2.8l-11.7-30.5l-3.5-0.5v-6h18.1v6l-4.1,0.7l5.1,14.8l0.5,2.7l0.2,0l5.9-17.5l-4.2-0.7v-6h18.1V230.2z"/>
			<path class="st1" d="M288.4,217.4l-4.1,0.5l-10.1,43.3H265l-9.1-32.9h-0.2l-9.1,32.9h-9.3L227,217.9l-4.1-0.5v-6h18.3v6l-4.6,0.8
				l5.7,27.3l0.2,0l9.3-34.2h7.4l9.4,34.2l0.2,0l5.7-27.3l-4.6-0.8v-6h18.3V217.4z"/>
			<path class="st1" d="M291.6,255.2l4.8-1v-23l-5.3-1v-6h14.6l0.4,5.4c0.9-1.9,2-3.4,3.4-4.5c1.4-1.1,3-1.6,4.8-1.6
				c0.5,0,1.1,0,1.7,0.1c0.6,0.1,1.1,0.2,1.5,0.3l-1.1,9.1l-4.1-0.1c-1.5,0-2.7,0.3-3.6,0.9c-1,0.6-1.7,1.4-2.2,2.4v18l4.8,1v6
				h-19.6V255.2z"/>
			<path class="st1" d="M320.1,255.2l4.8-1v-23l-5.3-1v-6h15.3v30l4.8,1v6h-19.6V255.2z M334.9,215.3h-10v-7.5h10V215.3z"/>
			<path class="st1" d="M343.6,243c0-5.8,1.3-10.6,3.8-14.1c2.5-3.6,6.1-5.4,10.7-5.4c2.1,0,3.9,0.5,5.5,1.4c1.6,0.9,2.9,2.2,4,4
				l0.7-4.7h8.7v35.9c0,4.9-1.5,8.8-4.6,11.7c-3.1,2.9-7.3,4.4-12.6,4.4c-1.9,0-3.9-0.3-6-0.8c-2.1-0.5-4-1.2-5.8-2.1l1.8-7
				c1.6,0.7,3.2,1.2,4.8,1.6c1.6,0.4,3.3,0.6,5.1,0.6c2.4,0,4.3-0.7,5.5-2.2c1.2-1.5,1.8-3.5,1.8-6.2v-2.4c-1.1,1.4-2.4,2.5-3.9,3.2
				s-3.2,1.1-5.1,1.1c-4.5,0-8.1-1.7-10.6-5c-2.5-3.3-3.8-7.7-3.8-13.2V243z M353.6,243.7c0,3.2,0.5,5.8,1.6,7.6
				c1.1,1.9,2.9,2.8,5.3,2.8c1.5,0,2.8-0.3,3.9-0.8c1.1-0.6,1.9-1.4,2.5-2.4v-16.1c-0.6-1.1-1.5-2-2.5-2.6c-1.1-0.6-2.3-0.9-3.8-0.9
				c-2.4,0-4.2,1.1-5.4,3.3c-1.1,2.2-1.7,5-1.7,8.5V243.7z"/>
			<path class="st1" d="M382.5,255.2l4.8-1v-39.3l-5.3-1v-6h15.3v21.1c1.2-1.7,2.6-3,4.3-4c1.7-0.9,3.6-1.4,5.6-1.4
				c3.9,0,6.9,1.3,9.1,3.9c2.2,2.6,3.3,6.5,3.3,11.9v15l4.8,1v6h-19.1v-6l4.3-1v-15c0-2.9-0.5-4.9-1.5-6.1s-2.5-1.8-4.5-1.8
				c-1.4,0-2.6,0.3-3.6,0.8c-1,0.5-1.9,1.2-2.6,2.1v20.1l4.3,1v6h-19.1V255.2z"/>
			<path class="st1" d="M442.3,215.1v9.1h6.5v7h-6.5V250c0,1.4,0.3,2.5,0.9,3.1s1.4,0.9,2.4,0.9c0.7,0,1.3,0,1.8-0.1
				c0.5-0.1,1.1-0.2,1.7-0.3l0.9,7.2c-1.1,0.3-2.2,0.6-3.3,0.8c-1.1,0.2-2.3,0.3-3.6,0.3c-3.4,0-6.1-0.9-8-2.8
				c-1.9-1.9-2.8-4.9-2.8-9v-18.9h-5.4v-7h5.4v-9.1H442.3z"/>
		</g>
		<g>
			<path class="st1" d="M62.9,307.2H54l-2,6.7H50l7.6-23.8h1.7l7.6,23.8H65L62.9,307.2z M54.5,305.5h7.8l-3.9-12.8L54.5,305.5z"/>
			<path class="st1" d="M87.9,313.9h-1.9l-11.2-20.3v20.3h-1.9v-23.8h1.9l11.2,20.3v-20.3h1.8V313.9z"/>
			<path class="st1" d="M96.1,313.9v-23.8h5.6c2.6,0,4.6,0.8,6.1,2.5c1.5,1.7,2.3,3.9,2.3,6.8v5c0,3-0.8,5.3-2.3,7s-3.7,2.5-6.4,2.5
				H96.1z M97.9,291.8v20.3h3.6c2.1,0,3.8-0.7,4.9-2c1.2-1.3,1.8-3.2,1.8-5.6v-5c0-2.4-0.6-4.3-1.7-5.7s-2.8-2-4.9-2H97.9z"/>
			<path class="st1" d="M140.7,291.8h-6.8v22H132v-22h-6.8v-1.8h15.4V291.8z"/>
			<path class="st1" d="M161.9,313.9H160v-11.4h-11.2v11.4H147v-23.8h1.9v10.7H160v-10.7h1.9V313.9z"/>
			<path class="st1" d="M181.2,302.5H172v9.7h10.6v1.7h-12.5v-23.8h12.4v1.8H172v8.9h9.2V302.5z"/>
			<path class="st1" d="M199.3,313.9v-23.8h5.6c2.6,0,4.6,0.8,6.1,2.5s2.3,3.9,2.3,6.8v5c0,3-0.8,5.3-2.3,7s-3.7,2.5-6.4,2.5H199.3z
				 M201.1,291.8v20.3h3.6c2.1,0,3.8-0.7,4.9-2c1.2-1.3,1.8-3.2,1.8-5.6v-5c0-2.4-0.6-4.3-1.7-5.7s-2.8-2-4.9-2H201.1z"/>
			<path class="st1" d="M228.3,304h-5.6v9.9h-1.9v-23.8h6.5c2.2,0,3.8,0.6,5,1.9c1.2,1.2,1.8,3,1.8,5.2c0,1.5-0.4,2.9-1.1,4
				c-0.7,1.2-1.7,2-3,2.4l5,10.1v0.2h-2L228.3,304z M222.7,302.2h5c1.4,0,2.5-0.5,3.4-1.4c0.8-1,1.3-2.2,1.3-3.7
				c0-1.7-0.4-3-1.3-3.9c-0.9-0.9-2.1-1.4-3.7-1.4h-4.6V302.2z"/>
			<path class="st1" d="M252.9,302.5h-9.2v9.7h10.6v1.7h-12.5v-23.8h12.4v1.8h-10.5v8.9h9.2V302.5z"/>
			<path class="st1" d="M271.7,307.2h-8.9l-2,6.7h-1.9l7.6-23.8h1.7l7.6,23.8h-1.9L271.7,307.2z M263.4,305.5h7.8l-3.9-12.8
				L263.4,305.5z"/>
			<path class="st1" d="M284.3,290.1l7.2,20.9l7.2-20.9h2.5v23.8h-1.9v-10.3l0.2-10.4l-7.3,20.7h-1.4l-7.3-20.6l0.2,10.2v10.4h-1.9
				v-23.8H284.3z"/>
			<path class="st1" d="M313.1,307.4l0.6,3.5l0.7-3.4l4.3-17.5h1.7l4.2,17.5l0.7,3.4l0.6-3.6l3.5-17.3h1.9l-5.1,23.8h-1.8l-4.5-18.6
				l-0.5-2.2l-0.5,2.2l-4.6,18.6h-1.8l-5.1-23.8h1.9L313.1,307.4z"/>
			<path class="st1" d="M348.8,302.5h-9.2v9.7h10.6v1.7h-12.5v-23.8h12.4v1.8h-10.5v8.9h9.2V302.5z"/>
			<path class="st1" d="M367.6,307.2h-8.9l-2,6.7h-1.9l7.6-23.8h1.7l7.6,23.8h-1.9L367.6,307.2z M359.2,305.5h7.8l-3.9-12.8
				L359.2,305.5z"/>
			<path class="st1" d="M382.4,310.9l0,0.3l0.1-0.3l6.2-20.8h2.1l-7.4,23.8h-1.8l-7.4-23.8h2L382.4,310.9z"/>
			<path class="st1" d="M408,302.5h-9.2v9.7h10.6v1.7h-12.5v-23.8h12.4v1.8h-10.5v8.9h9.2V302.5z"/>
			<path class="st1" d="M423.4,304h-5.6v9.9H416v-23.8h6.5c2.2,0,3.8,0.6,5,1.9c1.2,1.2,1.8,3,1.8,5.2c0,1.5-0.4,2.9-1.1,4
				s-1.7,2-3,2.4l5,10.1v0.2h-2L423.4,304z M417.9,302.2h5c1.4,0,2.5-0.5,3.4-1.4c0.8-1,1.3-2.2,1.3-3.7c0-1.7-0.4-3-1.3-3.9
				s-2.1-1.4-3.7-1.4h-4.6V302.2z"/>
			<path class="st1" d="M448.1,308c0-1.3-0.4-2.4-1.1-3.1s-2.2-1.5-4.2-2.2s-3.6-1.5-4.6-2.3c-1.3-1.1-1.9-2.6-1.9-4.4
				c0-1.8,0.6-3.3,1.9-4.4c1.3-1.1,2.9-1.7,4.9-1.7c2,0,3.7,0.7,5,2c1.3,1.3,1.9,3,1.9,5.1H448c0-1.6-0.4-2.9-1.3-3.9
				s-2.1-1.5-3.7-1.5c-1.5,0-2.7,0.4-3.6,1.2c-0.9,0.8-1.3,1.9-1.3,3.1c0,1.2,0.4,2.2,1.2,2.9c0.8,0.8,2.1,1.4,3.9,2
				c1.8,0.6,3.1,1.2,4.1,1.8c0.9,0.6,1.6,1.4,2,2.2c0.4,0.9,0.7,1.9,0.7,3c0,1.9-0.6,3.4-1.9,4.5s-2.9,1.7-5,1.7
				c-1.4,0-2.7-0.3-3.8-0.9s-2-1.4-2.7-2.5c-0.6-1.1-1-2.3-1-3.8h1.9c0,1.7,0.5,3,1.5,4c1,1,2.4,1.4,4.1,1.4c1.5,0,2.7-0.4,3.6-1.2
				C447.6,310.4,448.1,309.4,448.1,308z"/>
		</g>
	</g>
</g>
</svg>
